<svg width="20" height="20" viewBox="0 0 20 20" fill="none" xmlns="http://www.w3.org/2000/svg">
<path d="M18.9375 6.95833L10.875 4.48958C10.2813 4.30208 9.6875 4.30208 9.09375 4.48958L1.03125 6.95833C0.406255 7.17708 4.76837e-06 7.70833 4.76837e-06 8.36458C4.76837e-06 8.98958 0.406255 9.52083 1.03125 9.73958L1.71875 9.95833C1.65625 10.1146 1.59375 10.2708 1.5625 10.4583C1.21875 10.6146 1 10.9583 1 11.3646C1 11.6771 1.15625 11.9583 1.40625 12.1458L0.625005 15.7396C0.562505 16.0521 0.781255 16.3333 1.09375 16.3333H2.875C3.1875 16.3333 3.40625 16.0521 3.34375 15.7396L2.5625 12.1458C2.8125 11.9583 3 11.6771 3 11.3646C3 11.0208 2.8125 10.7396 2.5625 10.5521C2.59375 10.4583 2.65625 10.3333 2.71875 10.2396L4.4375 10.7708L4 14.3333C4 15.4583 6.65625 16.3333 10 16.3333C13.3125 16.3333 16 15.4583 16 14.3333L15.5313 10.7708L18.9375 9.73958C19.5625 9.52083 20 8.98958 20 8.36458C20 7.70833 19.5625 7.17708 18.9375 6.95833ZM14.4375 14.0521C12.5625 15.1146 7.375 15.1146 5.53125 14.0521L5.875 11.2396L9.09375 12.2083C9.4375 12.3333 10.0938 12.4583 10.875 12.2083L14.0938 11.2396L14.4375 14.0521ZM10.4375 10.7708C10.1563 10.8646 9.8125 10.8646 9.53125 10.7708L4.8125 9.33333L10.0625 8.33333C10.3438 8.30208 10.5313 8.02083 10.4688 7.77083C10.4375 7.48958 10.1563 7.30208 9.90625 7.36458L3.53125 8.55208C3.3125 8.58333 3.125 8.67708 2.9375 8.73958L1.65625 8.33333L9.53125 5.92708C9.8125 5.83333 10.1563 5.83333 10.4375 5.92708L18.3125 8.36458L10.4375 10.7708Z" fill="white"/>
</svg>
