<svg width="20" height="20" viewBox="0 0 20 20" fill="none" xmlns="http://www.w3.org/2000/svg">
<path d="M15 10.9615H15.625V12.1154H15V10.9615ZM7.91666 0V7.84615H6.66666V0H7.91666ZM11.2917 10.9615H15V12.1154H11.2917V10.9615ZM7.91666 7.84615C7.91666 8.50192 7.91716 8.959 7.94866 9.31485C7.97957 9.664 8.03716 9.86462 8.12099 10.0165L7.00726 10.5404C6.81865 10.1986 6.74001 9.82931 6.70279 9.40885C6.66617 8.99508 6.66666 8.48285 6.66666 7.84615H7.91666ZM11.2917 12.1154C10.6019 12.1154 10.047 12.1158 9.59874 12.082C9.14324 12.0477 8.74316 11.9751 8.37291 11.801L8.94041 10.7729C9.10499 10.8503 9.32232 10.9035 9.70057 10.932C10.0861 10.9611 10.5812 10.9615 11.2917 10.9615V12.1154ZM8.12099 10.0165C8.30074 10.3422 8.58766 10.607 8.94041 10.7729L8.37291 11.801C7.78491 11.5244 7.30686 11.0832 7.00726 10.5404L8.12099 10.0165Z" fill="#B5B5B5"/>
<path d="M13.3333 9.23077L15.8333 11.5385L13.3333 13.8462" stroke="#B5B5B5" stroke-width="1.5" stroke-linecap="round" stroke-linejoin="round"/>
</svg>
