<svg width="20" height="20" viewBox="0 0 20 20" fill="none" xmlns="http://www.w3.org/2000/svg">
<path d="M6.99999 7.08334C6.99999 7.23959 7.09374 7.33334 7.24999 7.33334H13.75C13.875 7.33334 14 7.23959 14 7.08334V6.08334C14 5.95834 13.875 5.83334 13.75 5.83334H7.24999C7.09374 5.83334 6.99999 5.95834 6.99999 6.08334V7.08334ZM7.24999 9.83334H13.75C13.875 9.83334 14 9.73959 14 9.58334V8.58334C14 8.45834 13.875 8.33334 13.75 8.33334H7.24999C7.09374 8.33334 6.99999 8.45834 6.99999 8.58334V9.58334C6.99999 9.73959 7.09374 9.83334 7.24999 9.83334ZM16.5937 14.8333C16.8125 14.8021 17 14.5833 17 14.3333V2.83334C17 2.58334 16.75 2.33334 16.5 2.33334H5.49999C4.09374 2.33334 2.99999 3.45834 2.99999 4.83334V15.8333C2.99999 17.2396 4.09374 18.3333 5.49999 18.3333H16.5C16.75 18.3333 17 18.1146 17 17.8333V17.3333C17 17.1146 16.8125 16.8958 16.5937 16.8646C16.4375 16.4583 16.4375 15.2396 16.5937 14.8333ZM15.3125 14.8333C15.2187 15.3958 15.2187 16.3021 15.3125 16.8333H5.49999C4.93749 16.8333 4.49999 16.3958 4.49999 15.8333C4.49999 15.3021 4.93749 14.8333 5.49999 14.8333H15.3125ZM15.5 3.83334V13.3333H5.49999C5.12499 13.3333 4.78124 13.4271 4.49999 13.5521V4.83334C4.49999 4.30209 4.93749 3.83334 5.49999 3.83334H15.5Z" fill="white"/>
</svg>
