<svg width="20" height="20" viewBox="0 0 20 20" fill="none" xmlns="http://www.w3.org/2000/svg">
<path d="M13.9167 12.3333H11.9167C11.3542 12.3333 10.9167 12.8021 10.9167 13.3333V17.3333C10.9167 17.8958 11.3542 18.3333 11.9167 18.3333H13.9167C14.4479 18.3333 14.9167 17.8958 14.9167 17.3333V13.3333C14.9167 12.8021 14.4479 12.3333 13.9167 12.3333ZM13.4167 16.8333H12.4167V13.8333H13.4167V16.8333ZM18.9167 8.33333H16.9167C16.3542 8.33333 15.9167 8.80208 15.9167 9.33333V17.3333C15.9167 17.8958 16.3542 18.3333 16.9167 18.3333H18.9167C19.4479 18.3333 19.9167 17.8958 19.9167 17.3333V9.33333C19.9167 8.80208 19.4479 8.33333 18.9167 8.33333ZM18.4167 16.8333H17.4167V9.83333H18.4167V16.8333ZM8.91667 8.33333H6.91667C6.35417 8.33333 5.91667 8.80208 5.91667 9.33333V17.3333C5.91667 17.8958 6.35417 18.3333 6.91667 18.3333H8.91667C9.44792 18.3333 9.91667 17.8958 9.91667 17.3333V9.33333C9.91667 8.80208 9.44792 8.33333 8.91667 8.33333ZM8.41667 16.8333H7.41667V9.83333H8.41667V16.8333ZM3.91667 13.3333H1.91667C1.35417 13.3333 0.916667 13.8021 0.916667 14.3333V17.3333C0.916667 17.8958 1.35417 18.3333 1.91667 18.3333H3.91667C4.44792 18.3333 4.91667 17.8958 4.91667 17.3333V14.3333C4.91667 13.8021 4.44792 13.3333 3.91667 13.3333ZM3.41667 16.8333H2.41667V14.8333H3.41667V16.8333ZM2.91667 10.3333C3.72917 10.3333 4.41667 9.67708 4.41667 8.83333C4.41667 8.70833 4.38542 8.58333 4.35417 8.45833L7.51042 5.30208C7.63542 5.33333 7.76042 5.33333 7.91667 5.33333C8.10417 5.33333 8.26042 5.30208 8.44792 5.23958L11.4167 7.61458C11.4167 7.70833 11.4167 7.77083 11.4167 7.83333C11.4167 8.67708 12.0729 9.33333 12.9167 9.33333C13.7292 9.33333 14.4167 8.67708 14.4167 7.83333C14.4167 7.77083 14.3854 7.70833 14.3854 7.61458L17.3542 5.23958C17.5417 5.30208 17.6979 5.33333 17.9167 5.33333C18.7292 5.33333 19.4167 4.67708 19.4167 3.83333C19.4167 3.02083 18.7292 2.33333 17.9167 2.33333C17.0729 2.33333 16.4167 3.02083 16.4167 3.83333C16.4167 3.92708 16.4167 3.98958 16.4167 4.08333L13.4479 6.45833C13.2604 6.39583 13.1042 6.33333 12.8854 6.33333C12.6979 6.33333 12.5417 6.39583 12.3542 6.45833L9.38542 4.08333C9.38542 3.98958 9.41667 3.92708 9.41667 3.83333C9.41667 3.02083 8.72917 2.33333 7.91667 2.33333C7.07292 2.33333 6.41667 3.02083 6.41667 3.83333C6.41667 3.98958 6.41667 4.11458 6.44792 4.23958L3.29167 7.39583C3.16667 7.36458 3.04167 7.33333 2.91667 7.33333C2.07292 7.33333 1.41667 8.02083 1.41667 8.83333C1.41667 9.67708 2.07292 10.3333 2.91667 10.3333Z" fill="white"/>
</svg>
