<svg width="20" height="20" viewBox="0 0 20 20" fill="none" xmlns="http://www.w3.org/2000/svg">
<path fill-rule="evenodd" clip-rule="evenodd" d="M10.0001 17.875C13.1758 17.875 15.7501 15.3006 15.7501 12.125C15.7501 8.94936 13.1758 6.375 10.0001 6.375C6.82448 6.375 4.25012 8.94936 4.25012 12.125C4.25012 15.3006 6.82448 17.875 10.0001 17.875ZM10.0001 19.625C14.1423 19.625 17.5001 16.2671 17.5001 12.125C17.5001 7.98286 14.1423 4.625 10.0001 4.625C5.85799 4.625 2.50012 7.98286 2.50012 12.125C2.50012 16.2671 5.85799 19.625 10.0001 19.625Z" fill="#DCDCDC"/>
<path fill-rule="evenodd" clip-rule="evenodd" d="M10.0001 16.5C7.58388 16.5 5.62512 14.5412 5.62512 12.125H6.87512C6.87512 13.8509 8.27423 15.25 10.0001 15.25H10.2501C11.8379 15.25 13.1251 13.9628 13.1251 12.375V12.125H14.3751V12.375C14.3751 14.6532 12.5283 16.5 10.2501 16.5H10.0001Z" fill="#DCDCDC"/>
<path fill-rule="evenodd" clip-rule="evenodd" d="M6.51954 1.75C5.81208 1.75 5.32832 2.46453 5.59107 3.12139L7.06252 6.80003L5.43769 7.44997L3.96623 3.77132C3.24368 1.96495 4.57401 0 6.51954 0H13.4807C15.4262 0 16.7565 1.96495 16.034 3.77132L14.5625 7.44997L12.9377 6.80003L14.4091 3.12139C14.6719 2.46453 14.1881 1.75 13.4807 1.75H6.51954Z" fill="#DCDCDC"/>
</svg>
