<svg width="20" height="20" viewBox="0 0 20 20" fill="none" xmlns="http://www.w3.org/2000/svg">
<path d="M15 10.3333C16.6563 10.3333 18 8.98959 18 7.33334C18 5.67709 16.6563 4.33334 15 4.33334C13.3438 4.33334 12 5.67709 12 7.33334C12 8.98959 13.3438 10.3333 15 10.3333ZM15 5.83334C15.8125 5.83334 16.5 6.52084 16.5 7.33334C16.5 8.17709 15.8125 8.83334 15 8.83334C14.1563 8.83334 13.5 8.17709 13.5 7.33334C13.5 6.52084 14.1563 5.83334 15 5.83334ZM8.5 10.9583C8.125 10.9583 7.75 11.0208 7.375 11.1458C6.9375 11.2708 6.46875 11.3333 5.96875 11.3333C5.5 11.3333 5.03125 11.2708 4.59375 11.1458C4.21875 11.0208 3.84375 10.9583 3.46875 10.9583C2.34375 10.9583 1.25 11.4896 0.593755 12.4271C0.218755 13.0208 4.76837e-06 13.7083 4.76837e-06 14.4583V15.8333C4.76837e-06 16.6771 0.656255 17.3333 1.5 17.3333H10.5C11.3125 17.3333 12 16.6771 12 15.8333V14.4583C12 13.7083 11.75 13.0208 11.375 12.4271C10.7188 11.4896 9.625 10.9583 8.5 10.9583ZM10.5 15.8333H1.5V14.4583C1.5 13.5521 2.0625 12.7708 2.875 12.4896C3.1875 12.3646 3.53125 12.3646 3.875 12.4896C4.5625 12.7083 5.28125 12.8333 6 12.8333C6.71875 12.8333 7.40625 12.7083 8.125 12.4896C8.4375 12.3646 8.78125 12.3646 9.125 12.4896C9.90625 12.7708 10.5 13.5521 10.5 14.4583V15.8333ZM6 10.3333C7.90625 10.3333 9.5 8.77084 9.5 6.83334C9.5 4.92709 7.90625 3.33334 6 3.33334C4.0625 3.33334 2.5 4.92709 2.5 6.83334C2.5 8.77084 4.0625 10.3333 6 10.3333ZM6 4.83334C7.09375 4.83334 8 5.73959 8 6.83334C8 7.95834 7.09375 8.83334 6 8.83334C4.875 8.83334 4 7.95834 4 6.83334C4 5.73959 4.875 4.83334 6 4.83334ZM19.4688 12.2708C18.9375 11.4583 18.0313 11.0208 17.0625 11.0208C16.2188 11.0208 16 11.3333 15 11.3333C14 11.3333 13.7813 11.0208 12.9063 11.0208C12.4688 11.0208 12.0938 11.1146 11.7188 11.3021C11.875 11.4583 12.0625 11.6771 12.2188 11.8646C12.3438 12.0833 12.4688 12.3333 12.5938 12.5521C12.6875 12.5521 12.7813 12.5208 12.9063 12.5208C13.4375 12.5208 13.8125 12.8333 15 12.8333C16.1563 12.8333 16.5313 12.5208 17.0625 12.5208C17.5625 12.5208 18 12.7396 18.2188 13.0833C18.4063 13.3333 18.5 13.6146 18.5 13.9271V14.8333H13V15.8333C13 16.0208 12.9688 16.1771 12.9375 16.3333H18.75C19.4375 16.3333 20 15.8021 20 15.0833V13.9271C20 13.3021 19.8125 12.7396 19.4688 12.2708Z" fill="white"/>
</svg>
