<svg width="20" height="20" viewBox="0 0 20 20" fill="none" xmlns="http://www.w3.org/2000/svg">
<path d="M17.5 3.33333H2.5C1.65625 3.33333 1 4.02083 1 4.83333V15.8333C1 16.6771 1.65625 17.3333 2.5 17.3333H17.5C18.3125 17.3333 19 16.6771 19 15.8333V4.83333C19 4.02083 18.3125 3.33333 17.5 3.33333ZM17.5 15.8333H2.5V4.83333H17.5V15.8333ZM7.5 10.3333C8.59375 10.3333 9.5 9.45833 9.5 8.33333C9.5 7.23958 8.59375 6.33333 7.5 6.33333C6.375 6.33333 5.5 7.23958 5.5 8.33333C5.5 9.45833 6.375 10.3333 7.5 10.3333ZM4.6875 14.3333H10.2812C10.6875 14.3333 11 14.0833 11 13.7396V13.1458C11 12.1458 10.0312 11.3333 8.875 11.3333C8.5625 11.3333 8.3125 11.5833 7.5 11.5833C6.65625 11.5833 6.4375 11.3333 6.09375 11.3333C4.9375 11.3333 4 12.1458 4 13.1458V13.7396C4 14.0833 4.3125 14.3333 4.6875 14.3333ZM12.25 12.3333H15.75C15.875 12.3333 16 12.2396 16 12.0833V11.5833C16 11.4583 15.875 11.3333 15.75 11.3333H12.25C12.0938 11.3333 12 11.4583 12 11.5833V12.0833C12 12.2396 12.0938 12.3333 12.25 12.3333ZM12.25 10.3333H15.75C15.875 10.3333 16 10.2396 16 10.0833V9.58333C16 9.45833 15.875 9.33333 15.75 9.33333H12.25C12.0938 9.33333 12 9.45833 12 9.58333V10.0833C12 10.2396 12.0938 10.3333 12.25 10.3333ZM12.25 8.33333H15.75C15.875 8.33333 16 8.23958 16 8.08333V7.58333C16 7.45833 15.875 7.33333 15.75 7.33333H12.25C12.0938 7.33333 12 7.45833 12 7.58333V8.08333C12 8.23958 12.0938 8.33333 12.25 8.33333Z" fill="white"/>
</svg>
