<svg width="20" height="20" viewBox="0 0 20 20" fill="none" xmlns="http://www.w3.org/2000/svg">
<path d="M12.78 8.27997C12.9125 8.13779 12.9846 7.94975 12.9812 7.75545C12.9778 7.56114 12.8991 7.37576 12.7617 7.23835C12.6242 7.10093 12.4389 7.02222 12.2446 7.01879C12.0503 7.01537 11.8622 7.08749 11.72 7.21997L7.22003 11.72C7.14634 11.7886 7.08724 11.8714 7.04625 11.9634C7.00526 12.0554 6.98322 12.1547 6.98144 12.2554C6.97966 12.3561 6.99819 12.4562 7.03591 12.5496C7.07363 12.643 7.12977 12.7278 7.20099 12.799C7.27221 12.8702 7.35705 12.9264 7.45043 12.9641C7.54382 13.0018 7.64385 13.0203 7.74455 13.0186C7.84526 13.0168 7.94457 12.9947 8.03657 12.9537C8.12857 12.9128 8.21137 12.8537 8.28003 12.78L12.78 8.27997Z" fill="#DCDCDC"/>
<path d="M9 8C9 8.26522 8.89464 8.51957 8.70711 8.70711C8.51957 8.89464 8.26522 9 8 9C7.73478 9 7.48043 8.89464 7.29289 8.70711C7.10536 8.51957 7 8.26522 7 8C7 7.73478 7.10536 7.48043 7.29289 7.29289C7.48043 7.10536 7.73478 7 8 7C8.26522 7 8.51957 7.10536 8.70711 7.29289C8.89464 7.48043 9 7.73478 9 8Z" fill="#DCDCDC"/>
<path d="M12 13C12.2652 13 12.5196 12.8946 12.7071 12.7071C12.8946 12.5196 13 12.2652 13 12C13 11.7348 12.8946 11.4804 12.7071 11.2929C12.5196 11.1054 12.2652 11 12 11C11.7348 11 11.4804 11.1054 11.2929 11.2929C11.1054 11.4804 11 11.7348 11 12C11 12.2652 11.1054 12.5196 11.2929 12.7071C11.4804 12.8946 11.7348 13 12 13Z" fill="#DCDCDC"/>
<path fill-rule="evenodd" clip-rule="evenodd" d="M12.094 3.51401C11.272 1.72401 8.72801 1.72401 7.90601 3.51401C7.82169 3.69876 7.67058 3.84475 7.48304 3.92266C7.29549 4.00057 7.08542 4.00463 6.89501 3.93401C5.04701 3.24801 3.24801 5.04701 3.93301 6.89401C4.00399 7.08442 4.00023 7.29464 3.92249 7.4824C3.84476 7.67015 3.69881 7.8215 3.51401 7.90601C1.72401 8.72801 1.72401 11.272 3.51401 12.094C3.6986 12.1785 3.84444 12.3296 3.92233 12.5171C4.00021 12.7046 4.00438 12.9146 3.93401 13.105C3.24801 14.953 5.04701 16.752 6.89401 16.067C7.08444 15.9963 7.29457 16.0002 7.48225 16.0779C7.66994 16.1556 7.82131 16.3014 7.90601 16.486C8.72801 18.276 11.272 18.276 12.094 16.486C12.1785 16.3014 12.3296 16.1556 12.5171 16.0777C12.7046 15.9998 12.9146 15.9956 13.105 16.066C14.953 16.752 16.752 14.953 16.067 13.106C15.9963 12.9156 16.0002 12.7055 16.0779 12.5178C16.1556 12.3301 16.3014 12.1787 16.486 12.094C18.276 11.272 18.276 8.72801 16.486 7.90601C16.3014 7.8215 16.1556 7.67037 16.0777 7.4829C15.9998 7.29542 15.9956 7.08543 16.066 6.89501C16.752 5.04701 14.953 3.24801 13.106 3.93301C12.9156 4.00374 12.7055 3.99987 12.5178 3.92216C12.3301 3.84445 12.1787 3.69865 12.094 3.51401ZM9.26901 4.14001C9.33312 4 9.43609 3.88135 9.56568 3.79816C9.69527 3.71498 9.84602 3.67075 10 3.67075C10.154 3.67075 10.3047 3.71498 10.4343 3.79816C10.5639 3.88135 10.6669 4 10.731 4.14001C10.9733 4.66851 11.4064 5.08589 11.9435 5.30844C12.4806 5.53099 13.0819 5.54227 13.627 5.34001C13.7714 5.28626 13.9281 5.27512 14.0787 5.3079C14.2292 5.34069 14.3671 5.41604 14.4761 5.52497C14.585 5.6339 14.6603 5.77183 14.6931 5.92235C14.7259 6.07287 14.7148 6.22964 14.661 6.37401C14.459 6.91883 14.4703 7.51986 14.6926 8.05672C14.9149 8.59357 15.3319 9.02658 15.86 9.26901C16 9.33312 16.1187 9.43609 16.2019 9.56568C16.285 9.69527 16.3293 9.84602 16.3293 10C16.3293 10.154 16.285 10.3047 16.2019 10.4343C16.1187 10.5639 16 10.6669 15.86 10.731C15.3315 10.9733 14.9141 11.4064 14.6916 11.9435C14.469 12.4806 14.4577 13.0819 14.66 13.627C14.7133 13.7714 14.7241 13.928 14.6912 14.0783C14.6582 14.2286 14.5829 14.3663 14.4741 14.4751C14.3653 14.5839 14.2276 14.6592 14.0773 14.6922C13.927 14.7251 13.7704 14.7143 13.626 14.661C13.0812 14.459 12.4802 14.4703 11.9433 14.6926C11.4064 14.9149 10.9734 15.3319 10.731 15.86C10.6669 16 10.5639 16.1187 10.4343 16.2019C10.3047 16.285 10.154 16.3293 10 16.3293C9.84602 16.3293 9.69527 16.285 9.56568 16.2019C9.43609 16.1187 9.33312 16 9.26901 15.86C9.02675 15.3315 8.59364 14.9141 8.05655 14.6916C7.51945 14.469 6.91807 14.4577 6.37301 14.66C6.22869 14.7135 6.07206 14.7244 5.92171 14.6915C5.77137 14.6586 5.63363 14.5832 5.52485 14.4743C5.41608 14.3655 5.34084 14.2277 5.30807 14.0773C5.27531 13.9269 5.28639 13.7703 5.34001 13.626C5.54174 13.0811 5.53019 12.48 5.30768 11.9432C5.08517 11.4064 4.66812 10.9734 4.14001 10.731C4 10.6669 3.88135 10.5639 3.79816 10.4343C3.71498 10.3047 3.67075 10.154 3.67075 10C3.67075 9.84602 3.71498 9.69527 3.79816 9.56568C3.88135 9.43609 4 9.33312 4.14001 9.26901C4.66851 9.02675 5.08589 8.59364 5.30844 8.05655C5.53099 7.51945 5.54227 6.91807 5.34001 6.37301C5.28666 6.2288 5.27579 6.07231 5.30868 5.92211C5.34156 5.77191 5.41683 5.63428 5.52556 5.52556C5.63428 5.41683 5.77191 5.34156 5.92211 5.30868C6.07231 5.27579 6.2288 5.28666 6.37301 5.34001C6.91807 5.54227 7.51945 5.53099 8.05655 5.30844C8.59364 5.08589 9.02675 4.66851 9.26901 4.14001Z" fill="#DCDCDC"/>
</svg>
