<svg width="20" height="20" viewBox="0 0 20 20" fill="none" xmlns="http://www.w3.org/2000/svg">
<path d="M8.33819 10.0055V11.6731H5.00302L5.00302 10.0055H8.33819Z" fill="#DCDCDC"/>
<path d="M15.0084 10.0055H11.6732V11.6731H15.0084V10.0055Z" fill="#DCDCDC"/>
<path d="M8.33819 13.3406V15.0082H5.00302V13.3406H8.33819Z" fill="#DCDCDC"/>
<path d="M15.0084 13.3406H11.6732V15.0082H15.0084V13.3406Z" fill="#DCDCDC"/>
<path fill-rule="evenodd" clip-rule="evenodd" d="M6.67061 1.66748L5.00302 1.66748V3.33496L1.6676 3.33496L1.6676 18.3432L18.3434 18.3432L18.3434 3.33496L15.0083 3.33496V1.66748L13.3407 1.66748V3.33496L6.67061 3.33496V1.66748ZM3.33519 5.00254L3.33519 16.6756H16.6759V8.33781L3.33524 8.33781V6.67023L16.6759 6.67023V5.00254L3.33519 5.00254Z" fill="#DCDCDC"/>
</svg>
