<svg width="20" height="20" viewBox="0 0 20 20" fill="none" xmlns="http://www.w3.org/2000/svg">
<path fill-rule="evenodd" clip-rule="evenodd" d="M0.5 0V6.45439H2.12857V4.03399L3.8187 4.03399C3.85292 4.23457 3.90022 4.44333 3.95748 4.65479C4.11322 5.22988 4.36207 5.89478 4.70895 6.59397C5.35715 7.90055 6.36568 9.36279 7.79729 10.5952L7.7973 12.4868C6.5156 13.4759 4.84072 15.8692 5.09998 20L6.72541 19.8999C6.47283 15.8754 8.30018 14.0316 9.02827 13.6019L9.42588 13.3673L9.42585 9.83534L9.12493 9.59318C7.74855 8.48558 6.78013 7.111 6.17049 5.88216C5.86619 5.26877 5.65643 4.70196 5.53042 4.23663C5.51111 4.16535 5.49414 4.0978 5.47928 4.03399L14.7609 4.03399C14.746 4.09779 14.729 4.16535 14.7097 4.23663C14.5837 4.70196 14.374 5.26877 14.0697 5.88216C13.46 7.111 12.4916 8.48558 11.1152 9.59318L10.8143 9.83534L10.8143 13.3673L11.2119 13.6019C11.94 14.0316 13.7673 15.8754 13.5147 19.8999L15.1402 20C15.3994 15.8692 13.7245 13.4759 12.4428 12.4868L12.4429 10.5952C13.8745 9.36279 14.883 7.90055 15.5312 6.59397C15.8781 5.89478 16.1269 5.22988 16.2827 4.65479C16.3399 4.44333 16.3872 4.23456 16.4214 4.03399L17.8714 4.03399V6.45439H19.5V0H17.8714V2.42039L2.12857 2.4204V0H0.5ZM10.1629 5.97031C9.80308 5.97031 9.51143 6.25928 9.51143 6.61575C9.51143 6.97221 9.80308 7.26119 10.1629 7.26119C10.5226 7.26119 10.8143 6.97221 10.8143 6.61575C10.8143 6.25928 10.5226 5.97031 10.1629 5.97031ZM8.1 6.61575C8.1 5.48694 9.02357 4.57186 10.1629 4.57186C11.3021 4.57186 12.2257 5.48694 12.2257 6.61575C12.2257 7.74456 11.3021 8.65964 10.1629 8.65964C9.02357 8.65964 8.1 7.74456 8.1 6.61575Z" fill="#DCDCDC"/>
</svg>
