<svg width="20" height="20" viewBox="0 0 20 20" fill="none" xmlns="http://www.w3.org/2000/svg">
<path fill-rule="evenodd" clip-rule="evenodd" d="M15.9997 1.81775V4.54515H18.727V17.2962C18.727 17.4708 18.5656 17.6015 18.3944 17.5671C17.6625 17.42 15.8584 17.0912 14.3633 17.0912C12.4378 17.0912 9.99966 18.1821 9.99966 18.1821C9.99966 18.1821 7.51578 17.0912 5.636 17.0912C4.17239 17.0912 2.34256 17.4219 1.60407 17.5683C1.4332 17.6022 1.27234 17.4717 1.27234 17.2975V4.54515H3.99963V1.81775C3.99963 1.81775 4.63097 1.81775 5.52691 1.96446C6.83427 2.17853 8.70504 2.70499 9.99966 3.99967C11.2943 2.70499 13.165 2.17853 14.4724 1.96446C15.3684 1.81775 15.9997 1.81775 15.9997 1.81775ZM3.99963 14.3638C3.99963 14.3638 6.45137 14.3638 8.54823 16.0478C7.70154 15.8018 6.63603 15.5638 5.636 15.5638C4.70229 15.5638 3.65931 15.6821 2.79962 15.8106V6.07249H3.99963V14.3638ZM14.3633 15.5638C13.2264 15.5638 12.0281 15.8596 11.144 16.1346C13.1023 14.3638 15.9997 14.3638 15.9997 14.3638V6.07249H17.1997V15.8078C16.3469 15.6803 15.3105 15.5638 14.3633 15.5638ZM5.52691 3.51516V13.0183C5.86866 13.0888 6.2536 13.187 6.66443 13.3239C7.45586 13.5878 8.36073 14.002 9.23601 14.6498V5.39597L8.91971 5.07966C8.12604 4.28596 6.95514 3.82703 5.85014 3.58146C5.73972 3.55692 5.63175 3.53491 5.52691 3.51516ZM10.7633 5.396L11.0796 5.07966C11.8733 4.28596 13.0442 3.82703 14.1492 3.58146C14.2596 3.55692 14.3676 3.53491 14.4724 3.51516V12.9932C14.0789 13.0635 13.6291 13.1662 13.1534 13.3165C12.4126 13.5504 11.5631 13.9155 10.7633 14.4849V5.396Z" fill="#DCDCDC"/>
</svg>
