<svg width="20" height="20" viewBox="0 0 20 20" fill="none" xmlns="http://www.w3.org/2000/svg">
<path fill-rule="evenodd" clip-rule="evenodd" d="M13.1644 10C13.1644 11.7478 11.7475 13.1647 9.99979 13.1647C8.25204 13.1647 6.8352 11.7478 6.8352 10C6.8352 8.25219 8.25204 6.8353 9.99979 6.8353C11.7475 6.8353 13.1644 8.25219 13.1644 10ZM11.6876 10C11.6876 10.9322 10.9319 11.6879 9.99979 11.6879C9.06765 11.6879 8.31201 10.9322 8.31201 10C8.31201 9.06784 9.06765 8.31217 9.99979 8.31217C10.9319 8.31217 11.6876 9.06784 11.6876 10Z" fill="#DCDCDC"/>
<path fill-rule="evenodd" clip-rule="evenodd" d="M11.7165 1.66626H8.28306L7.82382 3.27368C7.4632 3.39027 7.11532 3.53501 6.78279 3.70528L5.3211 2.89319L2.89327 5.32112L3.70532 6.78287C3.53506 7.11542 3.39032 7.46331 3.27373 7.82394L1.66638 8.28321V11.7168L3.27373 12.1761C3.39032 12.5367 3.53506 12.8846 3.70532 13.2171L2.89327 14.6789L5.3211 17.1068L6.78279 16.2947C7.11532 16.465 7.4632 16.6098 7.82382 16.7263L8.28306 18.3338H11.7165L12.1758 16.7263C12.5364 16.6098 12.8843 16.465 13.2168 16.2947L14.6785 17.1068L17.1063 14.6789L16.2943 13.2171C16.4645 12.8846 16.6093 12.5367 16.7259 12.1761L18.3332 11.7168V8.28321L16.7259 7.82394C16.6093 7.46331 16.4645 7.11542 16.2943 6.78287L17.1063 5.32113L14.6785 2.89319L13.2168 3.70528C12.8843 3.53501 12.5364 3.39027 12.1758 3.27368L11.7165 1.66626ZM9.01538 4.4789L9.39702 3.14313H10.6026L10.9842 4.4789L11.3943 4.58416C11.9093 4.71632 12.3957 4.92013 12.8425 5.18453L13.207 5.40023L14.4219 4.72522L15.2744 5.57771L14.5994 6.79273L14.8151 7.1572C15.0795 7.60399 15.2833 8.09045 15.4154 8.60543L15.5207 9.01556L16.8564 9.39721V10.6028L15.5207 10.9845L15.4154 11.3946C15.2833 11.9096 15.0795 12.396 14.8151 12.8428L14.5994 13.2073L15.2744 14.4223L14.4219 15.2748L13.207 14.5998L12.8425 14.8155C12.3957 15.0799 11.9093 15.2837 11.3943 15.4159L10.9842 15.5211L10.6026 16.8569H9.39702L9.01538 15.5211L8.60527 15.4159C8.09031 15.2837 7.60387 15.0799 7.1571 14.8155L6.79264 14.5998L5.57767 15.2748L4.72521 14.4223L5.4002 13.2073L5.18451 12.8428C4.92012 12.396 4.71632 11.9096 4.58416 11.3946L4.47891 10.9845L3.14319 10.6028V9.39721L4.47891 9.01556L4.58416 8.60543C4.71632 8.09045 4.92012 7.60399 5.18451 7.1572L5.4002 6.79273L4.72521 5.57771L5.57767 4.72522L6.79264 5.40023L7.1571 5.18453C7.60387 4.92013 8.09031 4.71632 8.60527 4.58416L9.01538 4.4789Z" fill="#DCDCDC"/>
</svg>
