<svg width="20" height="20" viewBox="0 0 20 20" fill="none" xmlns="http://www.w3.org/2000/svg">
<path fill-rule="evenodd" clip-rule="evenodd" d="M18.3333 9.99971C18.3333 14.6025 14.6021 18.3338 9.99954 18.3338C5.39694 18.3338 1.6658 14.6025 1.6658 9.99971C1.6658 5.39693 5.39694 1.66563 9.99954 1.66563C14.6021 1.66563 18.3333 5.39693 18.3333 9.99971ZM16.8749 9.99971C16.8749 13.797 13.7967 16.8753 9.99954 16.8753C6.2024 16.8753 3.12421 13.797 3.12421 9.99971C3.12421 6.20242 6.2024 3.1241 9.99954 3.1241C13.7967 3.1241 16.8749 6.20242 16.8749 9.99971Z" fill="#DCDCDC"/>
<path fill-rule="evenodd" clip-rule="evenodd" d="M9.99967 16.7087C13.7048 16.7087 16.7083 13.705 16.7083 9.99977C16.7083 6.29451 13.7048 3.29082 9.99967 3.29082C6.29458 3.29082 3.29101 6.29451 3.29101 9.99977C3.29101 13.705 6.29458 16.7087 9.99967 16.7087ZM18.5001 9.99977C18.5001 14.6946 14.6943 18.5005 9.99967 18.5005C5.30502 18.5005 1.49927 14.6946 1.49927 9.99977C1.49927 5.30494 5.30502 1.49902 9.99967 1.49902C14.6943 1.49902 18.5001 5.30494 18.5001 9.99977ZM9.99954 18.3338C14.6021 18.3338 18.3333 14.6025 18.3333 9.99971C18.3333 5.39693 14.6021 1.66563 9.99954 1.66563C5.39694 1.66563 1.6658 5.39693 1.6658 9.99971C1.6658 14.6025 5.39694 18.3338 9.99954 18.3338ZM9.99954 16.8753C13.7967 16.8753 16.8749 13.797 16.8749 9.99971C16.8749 6.20242 13.7967 3.1241 9.99954 3.1241C6.2024 3.1241 3.12421 6.20242 3.12421 9.99971C3.12421 13.797 6.2024 16.8753 9.99954 16.8753Z" fill="#DCDCDC"/>
<path d="M9.37796 11.5093V11.6351H10.78V11.5093C10.7825 11.2676 10.8133 11.0641 10.8725 10.8989C10.9341 10.7336 11.0266 10.5881 11.1499 10.4623C11.2757 10.3366 11.436 10.2157 11.6308 10.0998C11.8626 9.96168 12.0636 9.80754 12.2338 9.63737C12.404 9.46473 12.5359 9.26743 12.6296 9.04546C12.7258 8.82103 12.7739 8.56453 12.7739 8.27598C12.7739 7.84438 12.6666 7.47567 12.4521 7.16985C12.2375 6.86403 11.9416 6.63096 11.5642 6.47065C11.1869 6.30788 10.7529 6.22649 10.2621 6.22649C9.81571 6.22649 9.40756 6.30665 9.03763 6.46696C8.6677 6.6248 8.37052 6.86526 8.1461 7.18835C7.92168 7.50896 7.8033 7.9159 7.79097 8.40916H9.30028C9.30767 8.20692 9.357 8.03798 9.44825 7.90233C9.5395 7.76422 9.65664 7.66064 9.79968 7.59158C9.94272 7.52006 10.0944 7.4843 10.2547 7.4843C10.4199 7.4843 10.5704 7.51883 10.706 7.58788C10.8441 7.65694 10.9539 7.75559 11.0352 7.88384C11.1166 8.01208 11.1573 8.1613 11.1573 8.33147C11.1573 8.49178 11.1216 8.63729 11.05 8.768C10.9785 8.89625 10.8823 9.0134 10.7615 9.11945C10.6406 9.2255 10.5038 9.32785 10.3509 9.4265C10.1462 9.55475 9.97108 9.69779 9.82557 9.85563C9.68007 10.0135 9.56909 10.2206 9.49264 10.4771C9.41865 10.7336 9.38043 11.0777 9.37796 11.5093Z" fill="#DCDCDC"/>
<path d="M9.47784 13.7437C9.65294 13.9164 9.8638 14.0027 10.1104 14.0027C10.2683 14.0027 10.4138 13.9632 10.5469 13.8843C10.6801 13.8029 10.7874 13.6956 10.8688 13.5625C10.9526 13.4268 10.9958 13.2776 10.9982 13.1148C10.9958 12.8731 10.9058 12.666 10.7282 12.4933C10.5506 12.3207 10.3447 12.2344 10.1104 12.2344C9.8638 12.2344 9.65294 12.3207 9.47784 12.4933C9.30521 12.666 9.22012 12.8731 9.22259 13.1148C9.22012 13.359 9.30521 13.5686 9.47784 13.7437Z" fill="#DCDCDC"/>
</svg>
